<svg 
 xmlns="http://www.w3.org/2000/svg"
 xmlns:xlink="http://www.w3.org/1999/xlink"
 width="35px" height="54px">
<path fill-rule="evenodd"  fill="rgb(129, 164, 19)"
 d="M29.660,28.886 L11.465,28.886 C11.035,28.886 10.687,28.532 10.687,28.095 C10.687,27.658 11.035,27.304 11.465,27.304 L29.660,27.304 C30.090,27.304 30.438,27.658 30.438,28.095 C30.438,28.532 30.090,28.886 29.660,28.886 ZM7.800,27.304 C8.230,27.304 8.578,27.658 8.578,28.095 C8.578,28.532 8.230,28.886 7.800,28.886 L5.340,28.886 C4.910,28.886 4.562,28.532 4.562,28.095 C4.562,27.658 4.910,27.304 5.340,27.304 L7.800,27.304 ZM4.562,10.623 C4.562,9.770 5.243,9.076 6.081,9.076 L28.918,9.076 C29.756,9.076 30.438,9.770 30.438,10.623 L30.438,23.603 C30.438,24.455 29.756,25.148 28.918,25.148 L6.081,25.148 C5.243,25.148 4.562,24.455 4.562,23.603 L4.562,10.623 ZM6.118,23.566 L28.882,23.566 L28.882,10.659 L6.118,10.659 L6.118,23.566 ZM21.513,21.333 C20.002,21.333 18.822,20.668 18.822,18.933 L18.822,18.793 C18.822,17.594 19.372,16.906 20.185,16.604 C19.532,16.370 19.086,15.789 19.086,14.810 C19.086,13.331 20.105,12.748 21.513,12.748 C22.910,12.748 23.929,13.332 23.929,14.810 C23.929,15.789 23.482,16.370 22.830,16.604 C23.654,16.906 24.192,17.594 24.192,18.793 L24.192,18.933 C24.192,20.668 23.025,21.333 21.513,21.333 ZM21.513,13.983 C20.883,13.983 20.528,14.274 20.528,14.996 C20.528,15.718 20.883,16.010 21.513,16.010 C22.131,16.010 22.498,15.718 22.498,14.996 C22.498,14.274 22.131,13.983 21.513,13.983 ZM22.704,18.525 C22.704,17.640 22.257,17.244 21.513,17.244 C20.757,17.244 20.311,17.640 20.311,18.525 L20.311,18.758 C20.311,19.678 20.769,20.098 21.513,20.098 C22.269,20.098 22.704,19.666 22.704,18.758 L22.704,18.525 ZM17.368,21.333 C16.922,21.333 16.589,20.959 16.589,20.539 C16.589,20.109 16.922,19.748 17.368,19.748 C17.780,19.748 18.135,20.109 18.135,20.539 C18.135,20.959 17.780,21.333 17.368,21.333 ZM13.349,21.333 C11.598,21.333 10.647,20.307 10.647,19.224 C10.647,18.688 10.922,18.537 11.391,18.537 C12.021,18.537 12.136,18.793 12.136,19.120 C12.136,19.690 12.651,20.004 13.315,20.004 C14.071,20.004 14.529,19.597 14.529,18.711 L14.529,18.491 C14.529,17.606 14.071,17.186 13.327,17.186 L11.632,17.186 C11.162,17.186 11.036,16.953 11.036,16.591 C11.036,16.499 11.048,16.394 11.048,16.289 L11.345,13.226 C11.368,12.935 11.460,12.748 11.632,12.748 L15.158,12.748 C15.456,12.748 15.605,13.085 15.605,13.412 C15.605,13.751 15.456,14.077 15.158,14.077 L12.582,14.077 L12.445,15.998 L13.326,15.998 C14.838,15.998 16.017,16.662 16.017,18.491 L16.017,18.711 C16.017,20.622 14.827,21.333 13.349,21.333 ZM34.222,12.545 C34.652,12.545 35.000,12.899 35.000,13.336 L35.000,31.028 C35.000,33.924 34.150,36.719 32.541,39.109 C30.993,41.408 28.932,43.292 26.565,44.628 C26.511,44.669 26.452,44.702 26.388,44.728 C24.893,45.549 23.279,46.152 21.599,46.505 L21.599,52.821 C21.599,53.471 21.079,54.000 20.441,54.000 L14.559,54.000 C13.921,54.000 13.401,53.471 13.401,52.821 L13.401,46.505 C11.720,46.152 10.107,45.549 8.611,44.728 C8.548,44.702 8.489,44.669 8.435,44.628 C6.068,43.292 4.006,41.408 2.459,39.109 C0.850,36.718 0.000,33.924 0.000,31.028 L0.000,9.604 C0.000,4.308 4.235,-0.001 9.442,-0.001 L25.558,-0.001 C30.764,-0.001 35.000,4.308 35.000,9.604 C35.000,10.040 34.652,10.394 34.222,10.394 C33.792,10.394 33.444,10.040 33.444,9.604 C33.444,5.181 29.906,1.582 25.558,1.582 L9.442,1.582 C5.093,1.582 1.556,5.181 1.556,9.604 L1.556,31.028 C1.556,33.604 2.312,36.089 3.743,38.215 C4.914,39.955 6.409,41.434 8.118,42.584 L8.118,36.430 C8.118,35.588 8.791,34.904 9.618,34.904 L25.382,34.904 C26.209,34.904 26.882,35.588 26.882,36.430 L26.882,42.584 C28.591,41.434 30.086,39.955 31.257,38.215 C32.688,36.089 33.444,33.604 33.444,31.028 L33.444,13.336 C33.444,12.900 33.792,12.545 34.222,12.545 ZM13.401,36.486 L9.673,36.486 L9.673,43.508 C10.850,44.120 12.102,44.585 13.401,44.886 L13.401,36.486 ZM20.043,36.486 L14.957,36.486 L14.957,38.283 L20.043,38.283 L20.043,36.486 ZM20.043,39.865 L14.957,39.865 L14.957,43.061 L20.043,43.061 L20.043,39.865 ZM20.043,44.643 L14.957,44.643 L14.957,52.417 L20.043,52.417 L20.043,44.643 ZM25.326,36.486 L21.599,36.486 L21.599,44.886 C22.898,44.585 24.150,44.120 25.326,43.508 L25.326,36.486 Z"/>
</svg>