<svg xmlns="http://www.w3.org/2000/svg" xmlns:xlink="http://www.w3.org/1999/xlink" width="50" height="50" viewBox="0 0 50 50"><defs><path id="xe2za" d="M25 1c2.798 0 5.488.46 8 1.307v2.211a22.868 22.868 0 0 0-8-1.435C12.343 3.083 2.083 13.343 2.083 26c0 12.657 10.26 22.917 22.917 22.917 12.657 0 22.917-10.26 22.917-22.917 0-3.585-.824-6.978-2.291-10h2.294A24.916 24.916 0 0 1 50 26c0 13.807-11.193 25-25 25S0 39.807 0 26 11.193 1 25 1zm-4.37 33h-3.884V20.967H13V18.19L20.63 17zm15.676-6.616H38v3.034h-1.694V34H32.41v-3.582h-6.5l-.231-2.408 6.73-10.963v-.035h3.897zm-7.146 0h3.25v-5.25l-.07-.024-.299.481zM40 13V9h-4V7h4V3h2v4h4v2h-4v4z"/></defs><g><g transform="translate(0 -1)"><use fill="#81a413" xlink:href="#xe2za"/></g></g></svg>