<svg 
 xmlns="http://www.w3.org/2000/svg"
 xmlns:xlink="http://www.w3.org/1999/xlink"
 width="53px" height="53px">
<path fill-rule="evenodd"  fill="rgb(129, 164, 19)"
 d="M51.902,34.790 L44.167,48.810 L44.167,52.117 C44.167,52.605 43.771,52.999 43.283,52.999 L30.917,52.999 C30.429,52.999 30.033,52.605 30.033,52.117 L30.033,44.167 L30.055,44.167 C30.275,39.746 32.714,35.738 36.538,33.510 L42.638,26.733 C43.255,26.041 44.131,25.637 45.057,25.617 C45.352,25.613 45.647,25.649 45.933,25.721 L45.933,14.133 C45.933,12.182 47.515,10.600 49.467,10.600 C51.418,10.600 53.000,12.182 53.000,14.133 L53.000,30.760 C53.000,32.177 52.620,33.568 51.902,34.790 ZM51.233,14.133 C51.233,13.157 50.442,12.366 49.467,12.366 C48.491,12.366 47.700,13.157 47.700,14.133 L47.700,26.811 C48.806,28.097 48.781,30.004 47.641,31.259 L40.404,39.219 L39.096,38.029 L46.336,30.067 C46.931,29.409 46.879,28.393 46.221,27.797 C45.562,27.203 44.546,27.255 43.951,27.913 L37.756,34.803 C37.693,34.874 37.619,34.933 37.536,34.980 C34.000,36.990 31.811,40.740 31.800,44.808 L31.800,51.233 L42.400,51.233 L42.400,48.583 C42.399,48.435 42.435,48.287 42.506,48.157 L50.368,33.915 C50.933,32.959 51.232,31.871 51.233,30.760 L51.233,14.133 ZM35.333,22.083 L37.100,22.083 C37.588,22.083 37.983,22.479 37.983,22.966 C37.977,28.330 33.630,32.677 28.267,32.683 L27.383,32.683 L27.383,39.750 L25.617,39.750 L25.617,32.683 L24.733,32.683 C19.370,32.677 15.023,28.330 15.017,22.966 C15.017,22.479 15.412,22.083 15.900,22.083 L17.667,22.083 C20.835,22.087 23.803,23.636 25.617,26.235 L25.617,20.316 L24.733,20.316 C19.370,20.310 15.023,15.964 15.017,10.600 C15.017,10.112 15.412,9.716 15.900,9.716 L17.667,9.716 C20.835,9.720 23.803,11.270 25.617,13.868 L25.617,7.950 L24.733,7.950 C20.832,7.946 17.671,4.784 17.667,0.883 C17.667,0.395 18.062,-0.001 18.550,-0.001 L20.317,-0.001 C22.889,0.001 25.257,1.401 26.500,3.653 C27.743,1.401 30.111,0.001 32.683,-0.001 L34.450,-0.001 C34.938,-0.001 35.333,0.395 35.333,0.883 C35.329,4.784 32.168,7.946 28.267,7.950 L27.383,7.950 L27.383,13.868 C29.197,11.270 32.165,9.720 35.333,9.716 L37.100,9.716 C37.588,9.716 37.983,10.112 37.983,10.600 C37.977,15.964 33.630,20.310 28.267,20.316 L27.383,20.316 L27.383,26.235 C29.197,23.636 32.165,22.087 35.333,22.083 ZM28.267,30.916 C32.314,30.911 35.713,27.871 36.168,23.850 L35.333,23.850 C31.286,23.855 27.887,26.895 27.432,30.916 L28.267,30.916 ZM17.667,23.850 L16.832,23.850 C17.287,27.871 20.686,30.911 24.733,30.916 L25.568,30.916 C25.113,26.895 21.714,23.855 17.667,23.850 ZM17.667,11.484 L16.832,11.484 C17.287,15.504 20.686,18.545 24.733,18.549 L25.568,18.549 C25.113,14.528 21.714,11.488 17.667,11.484 ZM20.317,1.766 L19.507,1.766 C19.941,4.315 22.148,6.180 24.733,6.183 L25.543,6.183 C25.109,3.634 22.902,1.770 20.317,1.766 ZM28.267,6.183 C30.852,6.180 33.059,4.315 33.493,1.766 L32.683,1.766 C30.098,1.770 27.891,3.634 27.457,6.183 L28.267,6.183 ZM28.267,18.549 C32.314,18.545 35.713,15.504 36.168,11.484 L35.333,11.484 C31.286,11.488 27.887,14.528 27.432,18.549 L28.267,18.549 ZM22.945,44.167 L22.967,44.167 L22.967,52.117 C22.967,52.605 22.571,52.999 22.083,52.999 L9.717,52.999 C9.229,52.999 8.833,52.605 8.833,52.117 L8.833,48.812 L1.001,34.715 C0.345,33.533 0.001,32.203 0.000,30.852 L0.000,14.133 C0.000,12.182 1.582,10.600 3.533,10.600 C5.485,10.600 7.067,12.182 7.067,14.133 L7.067,25.721 C8.268,25.412 9.541,25.804 10.362,26.733 L16.464,33.513 C20.282,35.744 22.719,39.749 22.945,44.167 ZM15.244,34.799 L9.049,27.915 C9.030,27.894 9.010,27.872 8.989,27.852 C8.362,27.226 7.346,27.226 6.720,27.853 C6.113,28.459 6.090,29.435 6.666,30.069 L13.904,38.030 L12.596,39.219 L5.359,31.257 C4.220,30.003 4.195,28.096 5.300,26.811 L5.300,14.133 C5.300,13.157 4.509,12.366 3.533,12.366 C2.558,12.366 1.767,13.157 1.767,14.133 L1.767,30.852 C1.768,31.903 2.035,32.936 2.545,33.855 L10.489,48.154 C10.562,48.285 10.600,48.433 10.600,48.583 L10.600,51.233 L21.200,51.233 L21.200,44.808 C21.195,40.755 19.024,37.016 15.509,35.001 C15.412,34.945 15.322,34.877 15.244,34.799 Z"/>
</svg>