<svg xmlns="http://www.w3.org/2000/svg" xmlns:xlink="http://www.w3.org/1999/xlink" width="22" height="19" viewBox="0 0 22 19"><defs><path id="knm9a" d="M1646 646.333v2.461c-.002.663-.884 1.182-2.2 1.571v2.3a.754.754 0 0 1-.072.315c.757.302 1.14.662 1.166 1.093h.006v2.462c-.003 1.17-2.749 1.897-5.8 2.237-.022.004-.043.013-.067.013-.007 0-.013-.004-.02-.004-.588.064-1.185.114-1.777.15-.012 0-.023.006-.036.006-.007 0-.013-.003-.02-.004-.75.044-1.489.066-2.18.066-.691 0-1.43-.022-2.18-.065-.008 0-.013.003-.02.003-.013 0-.024-.005-.036-.007a37.55 37.55 0 0 1-1.778-.149c-.007 0-.013.004-.02.004-.023 0-.044-.009-.066-.013-3.051-.34-5.797-1.065-5.8-2.235v-2.463h.005a.748.748 0 0 1 .05-.219c-.717-.33-1.154-.724-1.155-1.19v-2.462h.004c.035-.592.755-1.055 2.196-1.411v-2.459h.005a.759.759 0 0 1 .033-.18c-1.337-.389-2.236-.912-2.238-1.58v-2.462h.006c.132-2.05 8.888-2.112 9.894-2.112 1.006 0 9.762.061 9.894 2.112h.006v2.462a.77.77 0 0 1-.079.328c1.492.36 2.238.83 2.275 1.432zm-2.933 6.331v-1.456a5.562 5.562 0 0 1-1.1.484v1.678c.422-.159.742-.323.935-.485l.125-.106a.217.217 0 0 0 .04-.115zm-7.57 1.729l.236-.011v-1.756a42.35 42.35 0 0 1-1.105.032l-.059.002-.302.004v1.757c.133 0 .267-.002.398-.004l.161-.003c.227-.005.45-.012.67-.021zm-2.177.028l.213.002v-1.759c-.1 0-.201-.002-.302-.004l-.058-.001c-.37-.005-.739-.018-1.106-.033v1.756a41.46 41.46 0 0 0 1.158.037l.095.002zm-6.583-.768c.282.074.593.146.93.215v-1.718c-.39-.073-.758-.154-1.1-.243v1.7l.035.01.135.036zm7.535 2.876c-.369-.005-.738-.017-1.106-.033v1.757c.471.022.96.036 1.467.04v-1.758c-.1-.001-.202-.002-.302-.005h-.059zm1.397 0l-.302.006v1.758c.506-.005.995-.018 1.466-.04v-1.757c-.367.015-.737.027-1.106.033h-.058zm1.898-.074v1.755c.38-.026.747-.056 1.1-.092v-1.748c-.361.034-.728.062-1.1.085zm1.833 1.58c.388-.05.755-.104 1.1-.162v-1.728a29.46 29.46 0 0 1-1.1.15zm1.833-.297c.406-.083.774-.17 1.1-.26v-1.7c-.342.088-.71.17-1.1.243zm-13.567-1.96v1.7c.327.09.695.177 1.1.26v-1.717c-.389-.074-.757-.155-1.1-.244zm1.834 2.095c.345.06.712.113 1.1.162v-1.74a28.084 28.084 0 0 1-1.1-.15zm1.833.245c.352.036.72.066 1.1.092v-1.754c-.372-.024-.739-.052-1.1-.086zm0-3.779v-1.753c-.371-.024-.739-.052-1.1-.086v1.748c.027.001.053.005.079.007l.112.011c.297.028.601.052.91.073zm-2.933-2.064v1.728c.345.059.712.112 1.1.161v-1.74a28.064 28.064 0 0 1-1.1-.15zm8.47 2.036c.238-.02.47-.041.697-.063V652.5c-.361.034-.729.062-1.1.085v1.755c.082-.006.163-.011.244-.018l.16-.011zm2.53-.308v-1.728c-.355.055-.722.105-1.1.15v1.74c.387-.048.754-.103 1.1-.162zm.733-.136c.406-.083.774-.17 1.1-.26v-1.7c-.342.089-.71.17-1.1.243zm-4.933-3.323c.174.005.354.005.533.007v-1.757c-.101-.001-.202-.002-.303-.005h-.057c-.37-.006-.739-.018-1.106-.034v1.757l.042.002c.265.011.534.022.81.028l.081.002zm-8.236-4.925c.182.045.372.088.567.129l.135.027v-1.718c-.389-.073-.757-.154-1.1-.242v1.699c.127.035.26.07.398.105zm6.208-1.053a39.6 39.6 0 0 1-1.106-.033v1.755c.483.024.974.036 1.467.04v-1.757c-.1 0-.201-.002-.302-.004h-.059zm1.397.001c-.1.002-.202.004-.302.004v1.758l.396-.004.119-.002c.254-.006.505-.014.75-.024h.016l.185-.011v-1.755c-.367.016-.736.027-1.106.033l-.058.001zm8.498.004v-1.457a5.52 5.52 0 0 1-1.1.485v1.674c.381-.141.678-.287.872-.432l.133-.1.01.002c.055-.061.085-.118.085-.172zm-3.667 1.337v-1.726c-.355.056-.722.105-1.1.15v1.737c.386-.048.752-.102 1.1-.161zm1.833-.397v-1.696c-.342.088-.71.169-1.1.242v1.715c.402-.082.772-.17 1.1-.261zm-4.766-1.018v1.753c.379-.026.746-.058 1.1-.093v-1.746c-.361.034-.729.062-1.1.086zm-5.134 1.751v-1.75c-.371-.025-.739-.053-1.1-.087v1.746c.359.036.727.067 1.1.091zm-2.933-2.061v1.728l.12.02c.203.033.41.064.622.094.046.006.09.013.138.018.072.01.147.018.22.027v-1.739a28.085 28.085 0 0 1-1.1-.148zm5.133 6.286v-1.754a34.554 34.554 0 0 1-1.1-.086v1.748l.03.003.143.014c.224.022.453.04.688.059l.148.01c.03.003.062.004.091.006zm-2.488-.264c.21.03.43.06.655.09v-1.74a29.48 29.48 0 0 1-1.1-.15v1.726a24.382 24.382 0 0 0 .445.074zm-2.279-2.168v1.692c.328.093.696.182 1.1.265v-1.715a16.66 16.66 0 0 1-1.1-.242zm-1.833-.7v1.457c0 .011.004.023.007.034l.024.039c.121.194.493.413 1.07.626v-1.672a5.558 5.558 0 0 1-1.1-.484zm9.836 1.452c-.1.003-.202.004-.302.005v1.756c.495-.005.984-.017 1.466-.04v-1.755c-.367.016-.737.028-1.105.033l-.059.001zm4.831 1.343v-1.727c-.355.055-.722.105-1.1.149v1.738c.094-.011.19-.022.284-.035a19.086 19.086 0 0 0 .782-.118l.034-.007zm-2.478.303c.219-.017.432-.038.645-.06v-1.746c-.361.035-.729.063-1.1.086v1.752c.138-.01.28-.017.416-.028.013 0 .026-.003.039-.004zm4.312-.698v-1.7c-.343.089-.711.17-1.1.243v1.716c.028-.005.058-.01.087-.017l.28-.06c.197-.045.39-.09.572-.14l.16-.042zm-.287-4.243c-.023.015-.05.028-.073.042-.04.025-.085.05-.129.074-.038.02-.074.043-.115.063a4.86 4.86 0 0 1-.373.17c-.096.04-.195.08-.3.117l-.062.024c-.122.043-.25.084-.383.126l-.139.04c-.076.022-.153.045-.233.066-1.718.472-4.187.775-6.851.815a34.395 34.395 0 0 1-1.417-.005 38.5 38.5 0 0 1-1.365-.054l-.007.002-.014-.002a34.914 34.914 0 0 1-1.818-.15h-.002l-.007-.002a26.182 26.182 0 0 1-2.836-.462c-.026-.007-.054-.012-.078-.017-.005.008-.005.013-.007.02.042.238.605.553 1.604.85 1.297.384 3.328.736 5.9.845a49.931 49.931 0 0 0 .729.025 37.463 37.463 0 0 0 1.858 0l.332-.01c.134-.003.265-.009.397-.014 2.572-.11 4.602-.462 5.9-.846 1.006-.299 1.57-.616 1.604-.856-.041-.145-.474-.518-2.115-.86zm-18.408-3.353c.044.237.606.552 1.603.848 1.298.384 3.328.736 5.9.845.132.006.263.01.397.015l.332.01a45.556 45.556 0 0 0 1.858 0l.332-.01.397-.015c2.572-.11 4.602-.461 5.9-.845.996-.296 1.559-.611 1.603-.848-.057-.524-3.115-1.437-9.161-1.437-6.046 0-9.104.913-9.161 1.437zm1.094 3.143v-1.685a5.517 5.517 0 0 1-1.1-.485v1.459c0 .197.387.454 1.1.71zm-1.096 4.94c.033.24.597.558 1.605.857 1.298.384 3.328.736 5.9.846a65.798 65.798 0 0 0 .729.024 37.434 37.434 0 0 0 1.63.005l.272-.006.248-.007c2.78-.086 4.967-.456 6.336-.861a6.831 6.831 0 0 0 1.085-.408c-1.23.255-2.683.433-4.233.52l-.009.002h-.005a39.706 39.706 0 0 1-2.871.056 38.822 38.822 0 0 1-1.523-.057l-.001.001h-.003c-1.545-.087-2.964-.263-4.153-.505l-.288-.06-.092-.02c-1.294-.285-2.333-.667-2.835-1.153l-.02-.016c-1.36.32-1.731.65-1.772.782zm.883 3.071l.004-.004.21.079v-1.678a5.597 5.597 0 0 1-1.1-.484v1.457c0 .177.31.402.886.63zm1.313 3.952v-1.684a5.558 5.558 0 0 1-1.1-.485v1.457c.001.198.387.456 1.1.712zm17.234-.712v-1.457a5.563 5.563 0 0 1-1.1.485v1.684c.713-.257 1.1-.515 1.1-.712zm-.952-2.992c-.033.022-.073.043-.108.065-.038.025-.077.047-.118.071l-.101.056c-.643.342-1.58.618-2.663.831l-.077.015-.35.065c-.573.103-1.19.191-1.842.264-.008 0-.014.005-.022.005l-.007-.001c-.584.064-1.193.115-1.822.151l-.005.001h-.003a36.92 36.92 0 0 1-2.66.058 36.857 36.857 0 0 1-1.736-.059h-.001-.002c-1.84-.104-3.545-.337-4.88-.664l-.18-.045-.118-.032a10.27 10.27 0 0 1-.304-.084l-.035-.01c-.116-.035-.23-.071-.339-.107.07.236.63.54 1.6.828 1.298.385 3.328.737 5.9.846l.4.015.328.01a41.159 41.159 0 0 0 2.19-.01c.135-.004.266-.009.398-.015 2.572-.11 4.602-.46 5.9-.845 1-.298 1.564-.613 1.604-.851-.024-.088-.224-.31-.947-.558zm2.052-4.75v-1.456a5.601 5.601 0 0 1-1.1.485v1.684c.713-.256 1.1-.513 1.1-.712z"/></defs><g><g transform="translate(-1624 -640)"><use fill="#f5a918" xlink:href="#knm9a"/></g></g></svg>