<svg xmlns="http://www.w3.org/2000/svg" xmlns:xlink="http://www.w3.org/1999/xlink" width="480" height="4" viewBox="0 0 480 4"><defs><path id="a8jwa" d="M1048.753 10017c2.405 0 7.184 3 10.263 3 3.056 0 6.393-3 9.942-3 3.174 0 6.518 3 9.98 3h5.158l-5.085 1c-1.347 0-2.675-.45-3.983-1-2.072-.873-4.092-2-6.047-2-3.551 0-6.891 3-9.95 3-3.055 0-7.814-3-10.207-3-6.14 0-10.824 3-10.824 3v-1s4.657-3 10.753-3z"/></defs><g><g transform="translate(-1038 -10017)"><use fill="#869cd0" xlink:href="#a8jwa"/></g></g></svg>