<?xml version="1.0" encoding="utf-8"?>
<!-- Generator: Adobe Illustrator 22.0.1, SVG Export Plug-In . SVG Version: 6.00 Build 0)  -->
<svg version="1.1" id="Слой_1" xmlns="http://www.w3.org/2000/svg" xmlns:xlink="http://www.w3.org/1999/xlink" x="0px" y="0px"
	 viewBox="0 0 61.3 4" style="enable-background:new 0 0 61.3 4;" xml:space="preserve">
<style type="text/css">
	.st0{fill:#FC6363;}
</style>
<g>
	<g transform="translate(-1050 -1247)">
		<g>
			<path class="st0" d="M1070.1,1251c3.2,0,6.5-3,9.9-3h1.3c3.4,0,6.8,3,9.9,3c3.5,0,6.8-3,9.9-3c3.1,0,7.8,3,10.2,3l-0.1-1
				c-2.4,0-7.1-3-10.1-3c-3,0-6.4,3-9.9,3c-1.9,0-3.9-1.1-6-2c-1.3-0.6-2.6-1-4-1h-0.1l0,0h-0.9l0,0l-4.1,1c-2.1,0.9-4.1,2-6,2
				c-3.5,0-6.9-3-9.9-3c-3,0-7.8,3-10.2,3l-0.1,1c2.4,0,7.2-3,10.2-3C1063.3,1248,1066.6,1251,1070.1,1251z"/>
		</g>
	</g>
</g>
</svg>
